<svg width="725" height="398" viewBox="0 0 725 398" fill="none" xmlns="http://www.w3.org/2000/svg">
<g clip-path="url(#clip0_556_2)">
<path d="M664.947 321.618C662.863 304.525 732.312 207.17 701.755 164.809C671.197 122.448 596.193 160.35 588.864 151.989C581.535 143.628 631.611 48.8738 581.608 12.4588C531.605 -23.9572 424.655 31.0378 424.655 31.0378C419.65 32.6858 392.03 47.3478 368.402 60.0908C344.774 47.3478 317.153 32.6858 312.149 31.0378C312.149 31.0378 205.199 -23.9572 155.195 12.4588C105.192 48.8738 155.269 143.628 147.94 151.989C140.611 160.35 65.607 122.448 35.049 164.809C4.49102 207.17 73.94 304.525 71.856 321.618C69.772 338.711 32.965 342.427 32.27 357.29C31.576 372.154 80.189 395.936 123.942 395.936C167.694 395.936 174.639 397.422 174.639 397.422H368.4H562.161C562.161 397.422 569.106 395.936 612.858 395.936C656.611 395.936 705.225 372.155 704.53 357.29C703.837 342.427 667.03 338.711 664.947 321.618Z" fill="#2C3540"/>
<path opacity="0.7" d="M664.947 321.618C662.863 304.525 732.312 207.17 701.755 164.809C671.197 122.448 596.193 160.35 588.864 151.989C581.535 143.628 631.611 48.8738 581.608 12.4588C531.605 -23.9572 424.655 31.0378 424.655 31.0378C419.65 32.6858 392.03 47.3478 368.402 60.0908C344.774 47.3478 317.153 32.6858 312.149 31.0378C312.149 31.0378 205.199 -23.9572 155.195 12.4588C105.192 48.8738 155.269 143.628 147.94 151.989C140.611 160.35 65.607 122.448 35.049 164.809C4.49102 207.17 73.94 304.525 71.856 321.618C69.772 338.711 32.965 342.427 32.27 357.29C31.576 372.154 80.189 395.936 123.942 395.936C167.694 395.936 174.639 397.422 174.639 397.422H368.4H562.161C562.161 397.422 569.106 395.936 612.858 395.936C656.611 395.936 705.225 372.155 704.53 357.29C703.837 342.427 667.03 338.711 664.947 321.618Z" fill="white"/>
<path d="M0.5 362.382H724.467" stroke="#263238" stroke-miterlimit="10" stroke-linecap="round" stroke-linejoin="round"/>
<path d="M687.997 89.2451H683.342V362.382H687.997V89.2451Z" fill="#263238" stroke="#263238" stroke-miterlimit="10" stroke-linecap="round" stroke-linejoin="round"/>
<path d="M711.465 79.9341H661.426V135.803H711.465V79.9341Z" fill="#2C3540" stroke="#263238" stroke-miterlimit="10" stroke-linecap="round" stroke-linejoin="round"/>
<path d="M711.465 355.776H661.426V362.381H711.465V355.776Z" fill="#263238" stroke="#263238" stroke-miterlimit="10" stroke-linecap="round" stroke-linejoin="round"/>
<path d="M20.823 215.657C20.823 215.657 18.3841 222.365 13.2001 223.28C8.01605 224.194 -1.13095 214.133 4.66205 208.948C10.4561 203.766 18.384 211.998 20.823 215.657Z" fill="#2C3540" stroke="#263238" stroke-miterlimit="10" stroke-linecap="round" stroke-linejoin="round"/>
<path d="M28.7511 182.726C28.7511 182.726 21.1281 201.326 24.1771 210.474C27.2261 219.622 46.1311 226.329 51.6191 214.438C57.1081 202.545 44.9111 185.775 40.3371 182.117C35.7641 178.457 30.2751 179.677 28.7511 182.726Z" fill="#2C3540" stroke="#263238" stroke-miterlimit="10" stroke-linecap="round" stroke-linejoin="round"/>
<path d="M73.2692 190.654C73.2692 190.654 60.1572 202.545 58.6332 214.438C57.1092 226.33 65.9512 230.598 75.0982 229.074C84.2452 227.55 88.8202 204.376 86.0752 193.704C83.3312 183.031 73.2692 190.654 73.2692 190.654Z" fill="#2C3540" stroke="#263238" stroke-miterlimit="10" stroke-linecap="round" stroke-linejoin="round"/>
<path d="M75.7079 256.516C75.7079 256.516 61.0719 257.126 60.4619 264.139C59.8519 271.153 66.8649 272.677 73.8779 266.578C80.8919 260.479 81.8069 256.82 75.7079 256.516Z" fill="#2C3540" stroke="#263238" stroke-miterlimit="10" stroke-linecap="round" stroke-linejoin="round"/>
<path d="M60.7051 265.81C60.7051 265.81 72.2401 260.534 77.4341 259.617" stroke="#263238" stroke-miterlimit="10"/>
<path d="M78.9708 302.405C78.9708 302.405 68.2208 292.455 62.8168 296.967C57.4128 301.479 61.2758 307.527 70.5448 308.201C79.8138 308.876 83.0538 306.945 78.9708 302.405Z" fill="#2C3540" stroke="#263238" stroke-miterlimit="10" stroke-linecap="round" stroke-linejoin="round"/>
<path d="M61.8018 298.316C61.8018 298.316 73.6768 302.777 77.9888 305.814" stroke="#263238" stroke-miterlimit="10"/>
<path d="M22.262 299.475C22.262 299.475 37.082 285.759 44.531 291.978C51.98 298.198 46.655 306.536 33.878 307.465C21.101 308.394 16.633 305.733 22.262 299.475Z" fill="#2C3540" stroke="#263238" stroke-miterlimit="10" stroke-linecap="round" stroke-linejoin="round"/>
<path d="M45.929 293.839C45.929 293.839 29.56 299.987 23.616 304.175" stroke="#263238" stroke-miterlimit="10"/>
<path d="M39.4229 271.152C39.4229 271.152 37.8989 278.469 32.4099 281.214C26.9209 283.958 17.1639 278.165 22.3469 269.322C27.5299 260.479 36.6789 267.493 39.4229 271.152Z" fill="#2C3540" stroke="#263238" stroke-miterlimit="10" stroke-linecap="round" stroke-linejoin="round"/>
<path d="M26.617 248.283C26.617 248.283 23.872 242.184 13.2 246.148C2.52803 250.112 -1.74097 256.211 4.96703 258.345C11.676 260.479 26.617 248.283 26.617 248.283Z" fill="#2C3540" stroke="#263238" stroke-miterlimit="10" stroke-linecap="round" stroke-linejoin="round"/>
<path d="M24.573 248.005C24.573 248.005 13.267 249.228 7.15601 254.422" stroke="#263238" stroke-miterlimit="10"/>
<path d="M57.1079 175.103C57.1079 175.103 58.9369 179.372 62.5959 178.457C66.2549 177.542 67.1699 172.054 72.9629 173.579C78.7559 175.103 83.6349 181.811 83.6349 178.763C83.6349 175.714 76.3169 167.785 68.0839 167.785C59.8529 167.785 57.4129 171.139 57.1079 175.103Z" fill="#2C3540" stroke="#263238" stroke-miterlimit="10" stroke-linecap="round" stroke-linejoin="round"/>
<path d="M26.6169 248.283C26.6169 248.283 39.7459 245.762 45.2139 260.343C45.7509 261.774 46.2039 263.27 46.5849 264.805" stroke="#263238" stroke-miterlimit="10"/>
<path d="M81.4121 234.159C81.4121 234.159 84.1571 228.06 94.8291 232.024C105.501 235.988 109.77 242.087 103.062 244.22C96.3531 246.355 81.4121 234.159 81.4121 234.159Z" fill="#2C3540" stroke="#263238" stroke-miterlimit="10" stroke-linecap="round" stroke-linejoin="round"/>
<path d="M83.8511 234.561C83.8511 234.561 94.8511 233.951 100.045 240.367" stroke="#263238" stroke-miterlimit="10"/>
<path d="M81.4122 234.159C81.4122 234.159 77.0602 233.323 72.3242 235.397" stroke="#263238" stroke-miterlimit="10"/>
<path d="M33.6161 223.221C27.1801 216.649 20.8241 215.658 20.8241 215.658C20.8241 215.658 11.4351 213.173 7.76807 216.534" stroke="#263238" stroke-miterlimit="10"/>
<path d="M34.9211 189.443L34.3511 186.895" stroke="#263238" stroke-miterlimit="10"/>
<path d="M49.7701 324.243C49.7701 324.243 51.1371 271.733 49.7701 255.786C48.4031 239.84 42.0241 221.159 42.0241 221.159L35.5261 192.143" stroke="#263238" stroke-miterlimit="10"/>
<path d="M76.8701 200.717L78.0451 198.2" stroke="#263238" stroke-miterlimit="10"/>
<path d="M52.959 324.186C52.959 324.186 53.415 276.29 55.237 262.621C57.059 248.953 64.349 227.539 64.349 227.539L75.537 203.573" stroke="#263238" stroke-miterlimit="10"/>
<path d="M60.7049 265.81C60.7049 265.81 57.5159 293.27 55.6929 324.252" stroke="#263238" stroke-miterlimit="10"/>
<path d="M45.2131 324.186C45.2131 324.186 46.1251 280.39 44.3021 274.467C42.4801 268.544 39.4231 271.153 39.4231 271.153C39.4231 271.153 30.9901 272.144 27.9341 277.033" stroke="#263238" stroke-miterlimit="10"/>
<path d="M47.3071 268.217C49.6911 281.573 47.4921 324.232 47.4921 324.232" stroke="#263238" stroke-miterlimit="10"/>
<path d="M69.7402 236.829C67.1012 238.636 64.5652 241.551 62.8152 246.218C57.3482 260.798 57.9712 324.252 57.9712 324.252" stroke="#263238" stroke-miterlimit="10"/>
<path d="M35.2031 224.959C38.0511 228.303 40.8131 232.825 42.9361 238.929C50.2261 259.887 52.9591 314.162 51.5931 324.186" stroke="#263238" stroke-miterlimit="10"/>
<path d="M53.717 244.572C53.273 271.023 52.959 324.185 52.959 324.185" stroke="#263238" stroke-miterlimit="10"/>
<path d="M53.7729 241.281C54.0729 223.791 54.428 206.673 54.782 197.467C55.693 173.775 57.109 175.103 57.109 175.103C57.109 175.103 58.7959 169.784 68.2679 170.395" stroke="#263238" stroke-miterlimit="10"/>
<path d="M42.1039 261.256C42.1039 261.256 34.4809 254.458 37.5299 251.114C40.5789 247.771 59.4839 245.319 64.9729 249.666C70.4609 254.012 58.2649 260.142 53.6909 261.479C49.1169 262.816 43.6289 262.37 42.1039 261.256Z" fill="#2C3540" stroke="#263238" stroke-miterlimit="10" stroke-linecap="round" stroke-linejoin="round"/>
<path d="M49.1451 255.689C49.0381 256.377 48.9761 257.061 48.9761 257.718" stroke="#263238" stroke-miterlimit="10"/>
<path d="M51.7661 247.754C51.7661 247.754 50.6321 250.023 49.8091 252.803" stroke="#263238" stroke-miterlimit="10"/>
<path d="M42.1039 305.701C42.1039 305.701 34.4809 298.903 37.5299 295.56C40.5789 292.217 59.4839 289.765 64.9729 294.112C70.4609 298.458 58.2649 304.587 53.6909 305.925C49.1179 307.262 43.6289 306.816 42.1039 305.701Z" fill="#2C3540" stroke="#263238" stroke-miterlimit="10" stroke-linecap="round" stroke-linejoin="round"/>
<path d="M51.7661 292.199C51.7661 292.199 48.9751 297.78 48.9751 302.165" stroke="#263238" stroke-miterlimit="10"/>
<path d="M47.7788 286.904C47.7788 286.904 42.6038 282.289 44.6738 280.018C46.7438 277.748 59.5798 276.084 63.3058 279.035C67.0328 281.986 58.7518 286.147 55.6458 287.056C52.5398 287.965 48.8148 287.661 47.7788 286.904Z" fill="#2C3540" stroke="#263238" stroke-miterlimit="10" stroke-linecap="round" stroke-linejoin="round"/>
<path d="M54.3388 277.737C54.3388 277.737 52.4438 281.526 52.4438 284.503" stroke="#263238" stroke-miterlimit="10"/>
<path d="M61.2551 316.626H40.6201V362.382H61.2551V316.626Z" fill="white" stroke="#263238" stroke-miterlimit="10" stroke-linecap="round" stroke-linejoin="round"/>
<path d="M651.239 306.515H648.46V361.796H651.239V306.515Z" fill="white" stroke="#263238" stroke-miterlimit="10" stroke-linecap="round" stroke-linejoin="round"/>
<path d="M513.809 306.515H511.03V361.796H513.809V306.515Z" fill="white" stroke="#263238" stroke-miterlimit="10" stroke-linecap="round" stroke-linejoin="round"/>
<path d="M640.739 212.012H518.132V293.853H640.739V212.012Z" fill="white" stroke="#263238" stroke-miterlimit="10" stroke-linecap="round" stroke-linejoin="round"/>
<path d="M633.019 284.863H528.633V309.295H633.019V284.863Z" fill="white" stroke="#263238" stroke-miterlimit="10" stroke-linecap="round" stroke-linejoin="round"/>
<path d="M528.633 247.093H507.276V309.295H528.633V247.093Z" fill="white" stroke="#263238" stroke-miterlimit="10" stroke-linecap="round" stroke-linejoin="round"/>
<path d="M654.328 247.093H632.971V309.295H654.328V247.093Z" fill="white" stroke="#263238" stroke-miterlimit="10" stroke-linecap="round" stroke-linejoin="round"/>
<path d="M526.037 327.427L526.493 341.094C526.493 341.094 521.481 349.75 520.115 351.344C518.748 352.939 510.32 359.089 508.953 360.456C507.587 361.822 508.498 363.189 509.637 363.872C510.776 364.556 541.755 363.872 541.755 363.872C541.755 363.872 543.805 362.733 543.577 359.316C543.349 355.899 541.071 331.526 541.071 331.526L526.037 327.427Z" fill="white" stroke="#263238" stroke-miterlimit="10" stroke-linecap="round" stroke-linejoin="round"/>
<path d="M532.416 341.321C529.227 339.955 526.493 341.093 526.493 341.093C526.493 341.093 521.481 349.749 520.115 351.343C518.748 352.938 510.32 359.088 508.953 360.455C507.587 361.821 508.498 363.188 509.637 363.871C510.776 364.555 541.755 363.871 541.755 363.871C541.755 363.871 543.805 362.732 543.577 359.315C543.476 357.802 542.973 352.184 542.445 346.39L536.743 345.42C536.743 345.422 535.604 342.688 532.416 341.321Z" fill="white" stroke="#263238" stroke-miterlimit="10" stroke-linecap="round" stroke-linejoin="round"/>
<path d="M628.115 327.427L627.66 341.094C627.66 341.094 632.672 349.75 634.038 351.344C635.405 352.939 643.833 359.089 645.2 360.456C646.566 361.822 645.655 363.189 644.516 363.872C643.377 364.556 612.398 363.872 612.398 363.872C612.398 363.872 610.348 362.733 610.576 359.316C610.804 355.899 613.082 331.526 613.082 331.526L628.115 327.427Z" fill="white" stroke="#263238" stroke-miterlimit="10" stroke-linecap="round" stroke-linejoin="round"/>
<path d="M621.737 341.321C624.926 339.955 627.66 341.093 627.66 341.093C627.66 341.093 632.672 349.749 634.038 351.343C635.405 352.938 643.833 359.088 645.2 360.455C646.566 361.821 645.655 363.188 644.516 363.871C643.377 364.555 612.398 363.871 612.398 363.871C612.398 363.871 610.348 362.732 610.576 359.315C610.677 357.802 611.18 352.184 611.708 346.39L617.41 345.42C617.41 345.422 618.548 342.688 621.737 341.321Z" fill="white" stroke="#263238" stroke-miterlimit="10" stroke-linecap="round" stroke-linejoin="round"/>
<path d="M528.999 243.827C528.999 243.827 518.52 245.422 516.242 256.811C513.965 268.201 520.799 330.387 520.799 330.387L543.577 334.259L545.172 285.18H606.902L610.547 334.715C610.547 334.715 632.871 328.336 632.643 329.02C632.415 329.704 631.96 292.346 631.96 292.346C631.96 292.346 634.693 259.544 633.326 255.9C631.96 252.255 630.365 248.611 628.543 247.472C626.721 246.332 611.109 246.803 609.181 247.243C607.253 247.683 586.63 252.71 579.34 251.799C572.051 250.888 555.731 252.635 552.315 251.269C548.897 249.902 534.465 239.728 528.999 243.827Z" fill="#999999" stroke="#263238" stroke-miterlimit="10" stroke-linecap="round" stroke-linejoin="round"/>
<path d="M545.171 285.181V273.212C545.171 273.212 541.526 260.456 537.198 256.584" stroke="#263238" stroke-miterlimit="10" stroke-linecap="round" stroke-linejoin="round"/>
<path d="M540.616 256.356C540.616 256.356 543.349 259.772 544.261 263.645" stroke="#263238" stroke-miterlimit="10" stroke-linecap="round" stroke-linejoin="round"/>
<path d="M606.902 285.181V273.212L606.219 259.772" stroke="#263238" stroke-miterlimit="10" stroke-linecap="round" stroke-linejoin="round"/>
<path d="M602.802 259.317L604.397 266.151" stroke="#263238" stroke-miterlimit="10" stroke-linecap="round" stroke-linejoin="round"/>
<path d="M570.738 261.608C570.738 261.608 576.205 268.214 577.116 270.948" stroke="#263238" stroke-miterlimit="10" stroke-linecap="round" stroke-linejoin="round"/>
<path d="M583.667 265.097L579.339 268.058" stroke="#263238" stroke-miterlimit="10" stroke-linecap="round" stroke-linejoin="round"/>
<path d="M629.454 266.834L631.048 289.841" stroke="#263238" stroke-miterlimit="10" stroke-linecap="round" stroke-linejoin="round"/>
<path d="M520.342 275.263L519.204 306.47" stroke="#263238" stroke-miterlimit="10" stroke-linecap="round" stroke-linejoin="round"/>
<path d="M570.231 172.833C570.231 172.833 552.667 176.886 549.153 178.778C545.64 180.67 543.749 185.263 542.668 187.425C541.588 189.587 529.157 234.174 529.428 236.066C529.698 237.958 541.858 241.2 541.858 241.2L551.316 217.961L552.397 241.2L552.315 251.27C552.315 251.27 570.419 261.268 577.445 262.349C584.471 263.43 587.932 260.661 592.796 258.498C597.66 256.336 607.253 247.685 607.253 247.685L630.763 242.01C630.763 242.01 626.169 197.964 624.818 193.37C623.466 188.776 618.333 178.508 613.468 177.427C608.127 176.24 597.255 172.833 597.255 172.833H570.231Z" fill="#2C3540" stroke="#263238" stroke-miterlimit="10" stroke-linecap="round" stroke-linejoin="round"/>
<path d="M534.838 214.407C531.902 225.147 529.302 235.188 529.427 236.065C529.697 237.957 541.857 241.199 541.857 241.199L550.048 221.072L534.838 214.407Z" fill="#D1D1D1" stroke="#263238" stroke-miterlimit="10" stroke-linecap="round" stroke-linejoin="round"/>
<path d="M628.097 217.678L612.963 221.249L613.143 246.263L630.761 242.01C630.761 242.01 629.495 229.874 628.097 217.678Z" fill="#D1D1D1" stroke="#263238" stroke-miterlimit="10" stroke-linecap="round" stroke-linejoin="round"/>
<path d="M573.203 168.509L566.719 173.103L570.501 200.125L587.255 188.506L603.739 199.856C603.739 199.856 601.847 178.508 600.766 174.725C599.685 170.942 595.902 169.861 595.902 169.861L573.203 168.509Z" fill="#2C3540" stroke="#263238" stroke-miterlimit="10" stroke-linecap="round" stroke-linejoin="round"/>
<path d="M575.323 179.153C575.323 179.153 578.878 187.155 580.5 189.857C582.121 192.559 587.525 201.206 587.525 201.206L593.2 183.372L595.362 179.319L575.323 179.153Z" fill="#D1D1D1" stroke="#263238" stroke-miterlimit="10" stroke-linecap="round" stroke-linejoin="round"/>
<path d="M578.974 134.358C578.974 134.358 573.375 136.306 571.184 142.635C568.994 148.965 570.453 158.216 570.453 158.216C570.453 158.216 566.314 156.512 565.828 159.92C565.341 163.328 567.045 166.25 568.263 167.223C569.48 168.197 571.427 168.197 571.427 168.197C571.427 168.197 574.592 177.691 575.323 179.152C576.053 180.612 581.653 185.482 583.6 185.969C585.548 186.456 591.39 184.751 591.39 184.751C591.39 184.751 596.26 178.178 596.504 176.717C596.747 175.257 600.154 166.979 600.642 163.571C601.128 160.162 602.833 147.016 601.129 143.608C599.425 140.2 596.26 135.087 589.931 133.627C583.6 132.167 578.974 134.358 578.974 134.358Z" fill="#D1D1D1" stroke="#263238" stroke-miterlimit="10" stroke-linecap="round" stroke-linejoin="round"/>
<path d="M589.929 133.627C583.599 132.167 578.973 134.357 578.973 134.357C578.973 134.357 573.374 136.305 571.183 142.634C568.993 148.964 570.453 158.215 570.453 158.215C570.453 158.215 572.644 159.432 573.375 159.432C574.106 159.432 577.514 158.458 577.757 156.267C578 154.076 578.731 147.503 578.731 147.503C578.731 147.503 584.331 149.207 588.226 149.694C592.121 150.181 598.694 147.746 598.694 147.746L600.885 154.563L601.432 156.931C601.916 151.892 602.213 145.778 601.128 143.608C599.423 140.201 596.258 135.088 589.929 133.627Z" fill="#263238" stroke="#263238" stroke-miterlimit="10" stroke-linecap="round" stroke-linejoin="round"/>
<path d="M601.431 156.932C601.431 156.932 604.292 156.755 603.805 159.92C603.319 163.085 600.397 165.763 600.397 165.763L601.431 156.932Z" stroke="#263238" stroke-miterlimit="10" stroke-linecap="round" stroke-linejoin="round"/>
<path d="M590.903 165.763L590.416 175.014L586.277 174.771" stroke="#263238" stroke-miterlimit="10" stroke-linecap="round" stroke-linejoin="round"/>
<path d="M583.842 177.205C583.842 177.205 586.521 178.666 588.955 177.935" stroke="#263238" stroke-miterlimit="10" stroke-linecap="round" stroke-linejoin="round"/>
<path d="M579.217 166.25C579.217 166.25 581.652 168.685 585.06 167.224" stroke="#263238" stroke-miterlimit="10" stroke-linecap="round" stroke-linejoin="round"/>
<path d="M593.094 166.737C593.094 166.737 595.529 168.685 597.476 166.007" stroke="#263238" stroke-miterlimit="10" stroke-linecap="round" stroke-linejoin="round"/>
<path d="M579.512 162.847C579.512 162.847 583.283 164.104 585.937 163.545" stroke="#263238" stroke-miterlimit="10" stroke-linecap="round" stroke-linejoin="round"/>
<path d="M592.78 163.405C592.78 163.405 596.551 163.405 598.646 162.427" stroke="#263238" stroke-miterlimit="10" stroke-linecap="round" stroke-linejoin="round"/>
<path d="M561.981 212.258L558.226 243.27L589.239 250.778L593.156 221.398L561.981 212.258Z" fill="#263238" stroke="#263238" stroke-miterlimit="10" stroke-linecap="round" stroke-linejoin="round"/>
<path d="M593.156 221.398L621.883 210.952L616.007 241.964L589.239 250.778L593.156 221.398Z" fill="#263238" stroke="#263238" stroke-miterlimit="10" stroke-linecap="round" stroke-linejoin="round"/>
<path d="M593.156 221.398C593.156 221.398 593.809 218.296 597.4 217.154C600.991 216.012 619.598 209.809 619.598 209.809L620.577 211.115L593.156 221.398Z" fill="white" stroke="#263238" stroke-miterlimit="10" stroke-linecap="round" stroke-linejoin="round"/>
<path d="M593.156 221.398C593.156 221.398 591.034 217.807 590.055 217.154C589.076 216.501 564.592 210.625 564.592 210.625L562.906 212.47L593.156 221.398Z" fill="white" stroke="#263238" stroke-miterlimit="10" stroke-linecap="round" stroke-linejoin="round"/>
<path d="M630.199 236.563C630.199 236.563 631.737 241.768 631.501 244.016C631.265 246.264 628.069 247.448 625.349 248.868C622.627 250.288 616.949 252.299 613.635 252.417C610.322 252.536 602.514 251.707 601.33 251.707C600.147 251.707 589.853 249.341 587.724 248.631C585.595 247.921 583.11 246.975 582.045 246.147C580.98 245.319 579.323 244.964 579.323 244.964C579.323 244.964 578.377 244.136 578.14 243.426C577.903 242.716 582.162 243.544 582.162 243.544C582.162 243.544 577.784 240.35 576.956 239.876C576.128 239.402 576.01 238.338 576.128 237.864C576.246 237.391 581.334 240.23 581.69 240.23C582.044 240.23 585.357 240.467 585.357 240.467C585.357 240.467 582.661 237.686 580.769 236.605C578.877 235.524 579.689 234.173 580.769 234.173C581.85 234.173 588.606 238.226 588.606 238.226L597.794 239.307L597.523 235.794C597.523 235.794 596.172 234.442 595.631 232.821C595.091 231.2 596.983 229.848 598.604 231.47C600.225 233.091 602.927 235.523 603.739 236.064C604.55 236.604 605.36 242.819 605.36 242.819C605.36 242.819 613.516 241.413 614.344 240.229C615.173 239.046 622.864 234.787 624.638 234.432C626.412 234.077 627.832 234.314 627.832 234.314" fill="#D1D1D1"/>
<path d="M630.199 236.563C630.199 236.563 631.737 241.768 631.501 244.016C631.265 246.264 628.069 247.448 625.349 248.868C622.627 250.288 616.949 252.299 613.635 252.417C610.322 252.536 602.514 251.707 601.33 251.707C600.147 251.707 589.853 249.341 587.724 248.631C585.595 247.921 583.11 246.975 582.045 246.147C580.98 245.319 579.323 244.964 579.323 244.964C579.323 244.964 578.377 244.136 578.14 243.426C577.903 242.716 582.162 243.544 582.162 243.544C582.162 243.544 577.784 240.35 576.956 239.876C576.128 239.402 576.01 238.338 576.128 237.864C576.246 237.391 581.334 240.23 581.69 240.23C582.044 240.23 585.357 240.467 585.357 240.467C585.357 240.467 582.661 237.686 580.769 236.605C578.877 235.524 579.689 234.173 580.769 234.173C581.85 234.173 588.606 238.226 588.606 238.226L597.794 239.307L597.523 235.794C597.523 235.794 596.172 234.442 595.631 232.821C595.091 231.2 596.983 229.848 598.604 231.47C600.225 233.091 602.927 235.523 603.739 236.064C604.55 236.604 605.36 242.819 605.36 242.819C605.36 242.819 613.516 241.413 614.344 240.229C615.173 239.046 622.864 234.787 624.638 234.432C626.412 234.077 627.832 234.314 627.832 234.314" stroke="#263238" stroke-miterlimit="10" stroke-linecap="round" stroke-linejoin="round"/>
<path d="M585.356 240.468L589.379 242.124" stroke="#263238" stroke-miterlimit="10" stroke-linecap="round" stroke-linejoin="round"/>
<path d="M582.163 243.544C582.163 243.544 586.541 245.082 588.315 245.2" stroke="#263238" stroke-miterlimit="10" stroke-linecap="round" stroke-linejoin="round"/>
<path d="M529.937 232.134C528.468 233.441 526.999 237.523 526.999 239.808C526.999 242.094 529.12 244.216 531.406 245.36C533.692 246.503 538.591 247.319 543.815 246.829C549.04 246.34 551.856 244.713 551.856 244.713C551.856 244.713 558.226 243.271 560.142 243.237C562.058 243.203 568.469 240.788 569.286 240.135C570.102 239.482 569.612 237.849 569.612 237.849C569.612 237.849 571.408 236.706 571.898 235.89C572.387 235.074 570.265 233.767 570.265 233.767C570.265 233.767 571.734 232.788 572.06 232.298C572.386 231.808 570.591 230.991 569.775 231.318C568.959 231.645 563.081 232.625 563.081 232.625C563.081 232.625 567.326 230.176 568.143 229.686C568.958 229.197 568.47 228.707 567.817 228.054C567.164 227.401 562.265 230.013 561.612 230.176C560.959 230.339 555.572 231.483 555.572 231.483C555.572 231.483 556.388 229.197 556.878 228.871C557.368 228.544 559.654 227.238 559.654 227.238C559.654 227.238 560.306 223.972 560.306 222.83C560.306 221.686 557.041 225.278 557.041 225.278C557.041 225.278 552.142 228.707 551.651 229.034C551.162 229.36 548.387 235.891 548.387 235.891C548.387 235.891 547.079 236.38 544.63 234.584C542.182 232.788 538.427 231.482 536.305 231.482" fill="#D1D1D1"/>
<path d="M529.937 232.134C528.468 233.441 526.999 237.523 526.999 239.808C526.999 242.094 529.12 244.216 531.406 245.36C533.692 246.503 538.591 247.319 543.815 246.829C549.04 246.34 551.856 244.713 551.856 244.713C551.856 244.713 558.226 243.271 560.142 243.237C562.058 243.203 568.469 240.788 569.286 240.135C570.102 239.482 569.612 237.849 569.612 237.849C569.612 237.849 571.408 236.706 571.898 235.89C572.387 235.074 570.265 233.767 570.265 233.767C570.265 233.767 571.734 232.788 572.06 232.298C572.386 231.808 570.591 230.991 569.775 231.318C568.959 231.645 563.081 232.625 563.081 232.625C563.081 232.625 567.326 230.176 568.143 229.686C568.958 229.197 568.47 228.707 567.817 228.054C567.164 227.401 562.265 230.013 561.612 230.176C560.959 230.339 555.572 231.483 555.572 231.483C555.572 231.483 556.388 229.197 556.878 228.871C557.368 228.544 559.654 227.238 559.654 227.238C559.654 227.238 560.306 223.972 560.306 222.83C560.306 221.686 557.041 225.278 557.041 225.278C557.041 225.278 552.142 228.707 551.651 229.034C551.162 229.36 548.387 235.891 548.387 235.891C548.387 235.891 547.079 236.38 544.63 234.584C542.182 232.788 538.427 231.482 536.305 231.482" stroke="#263238" stroke-miterlimit="10" stroke-linecap="round" stroke-linejoin="round"/>
<path d="M570.265 233.767L564.877 235.236L560.958 235.726" stroke="#263238" stroke-miterlimit="10" stroke-linecap="round" stroke-linejoin="round"/>
<path d="M569.612 237.849L563.734 238.991L560.958 239.154" stroke="#263238" stroke-miterlimit="10" stroke-linecap="round" stroke-linejoin="round"/>
<path d="M563.081 232.624L559.979 233.113" stroke="#263238" stroke-miterlimit="10" stroke-linecap="round" stroke-linejoin="round"/>
<path d="M427.959 200.017C427.959 200.017 429.529 224.437 432.54 247.137C435.552 269.837 438.331 291.149 440.879 297.403C443.428 303.657 445.744 327.284 445.744 329.832C445.744 332.381 445.512 340.487 445.512 340.487L444.122 342.803L444.586 346.973C444.586 346.973 447.365 349.289 451.071 349.984C454.777 350.679 459.41 350.911 459.41 350.911C459.41 350.911 469.602 355.081 470.992 356.008C472.382 356.934 476.552 356.702 476.552 356.702C476.552 356.702 477.942 353.923 477.71 351.375C477.478 348.826 475.856 345.815 475.856 343.962C475.856 342.109 483.268 306.438 482.342 299.488C481.415 292.539 476.319 274.703 476.087 272.386C475.855 270.069 485.353 221.889 485.353 221.889L480.72 194.787L430.254 196.382L427.959 200.017Z" fill="#999999" stroke="#263238" stroke-miterlimit="10" stroke-linecap="round" stroke-linejoin="round"/>
<path d="M433.239 111.03L421.35 160.924L406.538 157.61L404.784 174.177L426.222 181.583L433.434 127.596L433.239 111.03Z" fill="#2C3540" stroke="#263238" stroke-miterlimit="10" stroke-linecap="round" stroke-linejoin="round"/>
<path d="M406.538 157.61L399.912 160.534L404.784 174.177L406.538 157.61Z" fill="white" stroke="#263238" stroke-miterlimit="10" stroke-linecap="round" stroke-linejoin="round"/>
<path d="M384.978 125.026L384.945 120.478L378.542 113.52L377.708 115.468L384.978 125.026Z" fill="white" stroke="#263238" stroke-miterlimit="10" stroke-linecap="round" stroke-linejoin="round"/>
<path d="M384.945 120.478L401.089 111.571L399.141 116.024L384.978 125.026L384.945 120.478Z" fill="white" stroke="#263238" stroke-miterlimit="10" stroke-linecap="round" stroke-linejoin="round"/>
<path d="M384.978 125.026L403.339 111.058L415.424 139.15L400.357 148.881L384.978 125.026Z" fill="#263238" stroke="#263238" stroke-miterlimit="10" stroke-linecap="round" stroke-linejoin="round"/>
<path d="M384.978 125.026L375.875 113.412L387.332 133.814L400.357 148.881L384.978 125.026Z" fill="#263238" stroke="#263238" stroke-miterlimit="10" stroke-linecap="round" stroke-linejoin="round"/>
<path d="M405.223 166.302C405.223 166.302 392.04 154.688 391.726 154.06C391.412 153.432 389.842 145.742 389.842 145.742L385.919 133.186C385.919 133.186 387.488 134.128 388.273 136.482C389.058 138.836 392.04 148.096 392.04 148.096C392.04 148.096 392.668 137.895 392.982 136.639C393.296 135.383 394.708 136.011 394.865 137.424C395.022 138.837 395.179 149.038 395.179 149.038L399.573 140.72C399.573 140.72 400.986 140.406 400.515 141.818C400.044 143.231 398.161 150.764 398.161 150.764C398.161 150.764 403.026 153.903 403.654 155.315C404.282 156.728 403.654 158.611 403.654 159.082C403.654 159.553 406.165 160.651 406.165 160.651L405.223 166.302Z" fill="white" stroke="#263238" stroke-miterlimit="10" stroke-linecap="round" stroke-linejoin="round"/>
<path d="M406.538 157.61L404.438 156.414L402.712 165.203L405.223 166.302L406.538 157.61Z" fill="white" stroke="#263238" stroke-miterlimit="10" stroke-linecap="round" stroke-linejoin="round"/>
<path d="M442.5 103.212C442.5 103.212 439.057 104.934 437.718 108.378C436.378 111.821 430.065 164.241 430.065 164.241L427.961 200.016L441.545 200.207L452.449 120.047L453.98 100.342C453.98 100.342 445.561 98.812 442.5 103.212Z" fill="white" stroke="#263238" stroke-miterlimit="10" stroke-linecap="round" stroke-linejoin="round"/>
<path d="M442.5 103.212C442.5 103.212 440.587 104.36 438.291 121.387C435.996 138.414 430.064 191.408 430.256 196.382C430.447 201.357 430.065 223.74 430.065 223.74L422.987 222.592C422.987 222.592 421.648 202.504 423.561 190.451C425.474 178.398 428.535 155.632 429.3 147.597C430.065 139.562 432.361 110.482 433.318 108.378C434.274 106.274 441.927 100.725 441.927 100.725L442.5 103.212Z" fill="#2C3540" stroke="#263238" stroke-miterlimit="10" stroke-linecap="round" stroke-linejoin="round"/>
<path d="M456.657 78.5332L462.014 92.6902L449.004 103.021L444.413 113.161L440.013 98.8122L451.492 89.8202L450.726 80.4462L456.657 78.5332Z" fill="white" stroke="#263238" stroke-miterlimit="10" stroke-linecap="round" stroke-linejoin="round"/>
<path d="M423.751 59.0191C423.751 59.0191 423.368 66.4801 424.516 68.7761C425.664 71.0721 427.578 74.1331 427.578 75.0891C427.578 76.0451 425.091 82.9331 425.665 83.8891C426.238 84.8461 429.3 85.0371 429.3 85.0371C429.3 85.0371 432.361 91.3501 432.935 93.4541C433.509 95.5581 433.892 100.15 436.187 101.681C438.483 103.212 442.309 100.342 447.858 96.8981C453.406 93.4541 453.789 89.2461 453.789 88.0981C453.789 86.9501 453.215 83.6981 453.215 83.6981C453.215 83.6981 457.233 81.5941 458.38 78.5321C459.528 75.4711 459.337 73.5581 459.337 73.5581C459.337 73.5581 462.589 72.0281 463.546 67.0541C464.502 62.0801 460.293 49.6441 456.658 47.1571C453.023 44.6701 449.963 40.8441 440.97 41.9911C431.978 43.1391 423.369 47.1571 422.03 51.7481C420.69 56.3401 423.751 59.0191 423.751 59.0191Z" fill="white" stroke="#263238" stroke-miterlimit="10" stroke-linecap="round" stroke-linejoin="round"/>
<path d="M422.029 51.7491C423.369 47.1571 431.977 43.1401 440.969 41.9921C449.961 40.8451 453.022 44.6711 456.657 47.1581C460.292 49.6451 464.501 62.0811 463.545 67.0551C462.588 72.0291 459.336 73.5591 459.336 73.5591C458.189 68.5851 453.788 67.8201 452.448 68.9681C451.109 70.1161 453.214 83.6991 453.214 83.6991C453.214 83.6991 453.788 86.9511 453.788 88.0991C453.788 89.2471 453.405 93.4551 447.857 96.8991C442.308 100.343 438.482 103.212 436.186 101.682C433.89 100.152 433.508 95.5601 432.934 93.4551C432.36 91.3511 429.299 85.0381 429.299 85.0381C429.299 85.0381 429.209 85.0321 429.066 85.0191C430.194 84.4491 431.851 83.9191 434.273 83.6991C440.586 83.1251 441.544 87.5251 443.074 87.3341C444.604 87.1431 447.283 85.0381 447.857 82.9341C448.43 80.8301 448.43 70.1161 448.622 68.9681C448.814 67.8201 448.239 67.4371 447.283 67.0551C446.326 66.6721 440.778 64.3761 439.056 63.2281C437.334 62.0811 437.717 54.8111 437.717 54.8111L423.751 59.0201C423.751 59.0201 420.69 56.3401 422.029 51.7491Z" fill="#263238" stroke="#263238" stroke-miterlimit="10" stroke-linecap="round" stroke-linejoin="round"/>
<path d="M430.942 69.1615C429.144 69.9287 428.527 72.5203 429.564 74.95C430.601 77.3797 432.899 78.7275 434.696 77.9603C436.494 77.1932 437.111 74.6016 436.074 72.1719C435.038 69.7422 432.74 68.3944 430.942 69.1615Z" stroke="#263238" stroke-miterlimit="10" stroke-linecap="round" stroke-linejoin="round"/>
<path d="M424.531 70.1641C423.283 71.2321 422.954 73.4371 423.843 75.5221C424.487 77.0291 425.614 78.1191 426.807 78.5471" stroke="#263238" stroke-miterlimit="10" stroke-linecap="round" stroke-linejoin="round"/>
<path d="M428.534 72.9849L425.665 73.1759" stroke="#263238" stroke-miterlimit="10" stroke-linecap="round" stroke-linejoin="round"/>
<path d="M436.094 72.169L451.875 70.498" stroke="#263238" stroke-miterlimit="10" stroke-linecap="round" stroke-linejoin="round"/>
<path d="M464.119 89.0552L445.178 102.256L448.813 112.013L467.753 99.7692L464.119 89.0552Z" fill="#2C3540" stroke="#263238" stroke-miterlimit="10" stroke-linecap="round" stroke-linejoin="round"/>
<path d="M449.004 108.952C449.004 108.952 446.134 126.744 444.221 143.771C442.308 160.798 439.247 193.13 438.865 193.895C438.483 194.66 438.099 203.078 439.056 206.904C440.013 210.73 446.708 222.783 448.813 223.357C450.918 223.931 461.057 224.313 461.057 224.313L494.536 226.035L488.223 188.729C488.223 188.729 488.796 143.388 489.37 138.031C489.944 132.675 491.092 113.734 488.604 112.204C486.118 110.673 467.751 99.7681 467.751 99.7681L449.004 108.952Z" fill="#2C3540" stroke="#263238" stroke-miterlimit="10" stroke-linecap="round" stroke-linejoin="round"/>
<path d="M488.606 112.204C488.606 112.204 494.919 137.649 494.346 141.092C493.772 144.536 491.476 184.329 491.093 186.625C490.71 188.921 476.363 220.87 476.363 220.87L461.44 213.792C461.44 213.792 469.092 183.373 469.092 182.799C469.092 182.225 471.196 173.424 471.388 172.851C471.579 172.277 464.309 138.032 464.309 138.032C464.309 138.032 462.97 130.38 465.457 127.127C467.944 123.874 475.214 116.796 475.214 116.796" fill="#2C3540"/>
<path d="M488.606 112.204C488.606 112.204 494.919 137.649 494.346 141.092C493.772 144.536 491.476 184.329 491.093 186.625C490.71 188.921 476.363 220.87 476.363 220.87L461.44 213.792C461.44 213.792 469.092 183.373 469.092 182.799C469.092 182.225 471.196 173.424 471.388 172.851C471.579 172.277 464.309 138.032 464.309 138.032C464.309 138.032 462.97 130.38 465.457 127.127C467.944 123.874 475.214 116.796 475.214 116.796" stroke="#263238" stroke-miterlimit="10" stroke-linecap="round" stroke-linejoin="round"/>
<path d="M477.375 173.071C475.851 174.14 474.644 175.007 474.259 175.337" stroke="#263238" stroke-miterlimit="10" stroke-linecap="round" stroke-linejoin="round"/>
<path d="M486.884 166.537C486.884 166.537 484.145 168.394 481.205 170.416" stroke="#263238" stroke-miterlimit="10" stroke-linecap="round" stroke-linejoin="round"/>
<path d="M473.301 219.531L471.388 223.74L460.674 219.148L462.97 214.174L473.301 219.531Z" fill="white" stroke="#263238" stroke-miterlimit="10" stroke-linecap="round" stroke-linejoin="round"/>
<path d="M460.674 219.148L457.997 224.122L468.709 232.157L470.049 223.166L460.674 219.148Z" fill="white" stroke="#263238" stroke-miterlimit="10" stroke-linecap="round" stroke-linejoin="round"/>
<path d="M444.586 346.973C444.586 346.973 438.1 353.922 436.71 354.849C435.32 355.775 425.359 363.188 425.359 363.188C425.359 363.188 424.665 364.578 425.823 365.272C426.981 365.967 443.195 366.43 443.195 366.43C443.195 366.43 445.975 367.821 449.913 367.821C453.851 367.821 468.444 366.663 470.529 366.199C472.613 365.736 476.319 365.272 477.246 362.957C478.173 360.641 476.552 356.702 476.552 356.702C476.552 356.702 474.93 355.081 472.382 353.459C469.834 351.838 467.749 350.448 464.507 348.826C461.264 347.205 456.4 349.753 456.4 349.753L444.586 346.973Z" fill="white" stroke="#263238" stroke-miterlimit="10" stroke-linecap="round" stroke-linejoin="round"/>
<path d="M454.778 352.532C454.778 352.532 452.925 356.007 448.061 359.249C443.196 362.492 443.196 366.43 443.196 366.43" fill="white"/>
<path d="M454.778 352.532C454.778 352.532 452.925 356.007 448.061 359.249C443.196 362.492 443.196 366.43 443.196 366.43" stroke="#263238" stroke-miterlimit="10" stroke-linecap="round" stroke-linejoin="round"/>
<path d="M457.878 334.813C457.789 338.636 457.789 339.792 457.789 339.792C457.789 339.792 457.325 341.413 457.094 343.035C456.863 344.656 457.325 345.814 457.325 345.814" stroke="#263238" stroke-miterlimit="10" stroke-linecap="round" stroke-linejoin="round"/>
<path d="M441.112 234.86L446.439 239.493C446.439 239.493 451.999 277.25 453.62 286.978C455.242 296.707 458.717 306.667 458.253 321.492C458.146 324.93 458.064 327.758 458 330.072" stroke="#263238" stroke-miterlimit="10" stroke-linecap="round" stroke-linejoin="round"/>
<path d="M472.41 297.861C473.148 301.497 473.701 304.334 473.772 305.046" stroke="#263238" stroke-miterlimit="10" stroke-linecap="round" stroke-linejoin="round"/>
<path d="M476.32 229.532C476.32 229.532 470.993 260.34 469.835 264.047C468.677 267.753 467.75 274.702 467.981 276.323C468.107 277.202 469.729 284.882 471.225 292.102" stroke="#263238" stroke-miterlimit="10" stroke-linecap="round" stroke-linejoin="round"/>
<path d="M474.93 308.289C474.93 308.289 474.467 311.764 473.54 317.323C472.613 322.882 469.834 340.95 469.834 340.95" stroke="#263238" stroke-miterlimit="10" stroke-linecap="round" stroke-linejoin="round"/>
<path d="M282.173 91.8779C282.173 91.8779 268.528 98.3119 268.847 103.945C269.165 109.579 269.58 112.037 269.58 112.037C269.58 112.037 253.788 116.694 253.625 122.069C253.462 127.444 256.431 134.381 255.898 135.832C255.365 137.283 247.991 138.527 250.967 145.22C253.943 151.912 261.102 157.754 273.081 157.872C285.06 157.991 291.967 147.929 292.241 138.89C292.515 129.851 297.557 100.659 297.557 100.659L282.173 91.8779Z" fill="#263238" stroke="#263238" stroke-miterlimit="10" stroke-linecap="round" stroke-linejoin="round"/>
<path d="M329.274 206.802C329.274 206.802 329.03 231.104 323.857 249.419C318.684 267.735 315.39 286.108 315.39 286.108C315.39 286.108 314.727 296.692 312.557 306.205C310.387 315.718 310.615 330.776 310.491 334.878C310.367 338.98 310.45 341.89 310.45 341.89C310.45 341.89 303.076 342.522 301.714 342.309C300.352 342.097 299.006 341.371 299.006 341.371C299.006 341.371 295.531 309.281 295.77 301.421C296.008 293.56 295.925 285.005 296.495 283.141C297.065 281.277 298.333 256.343 297.401 241.948C296.469 227.552 288.852 224.927 283.404 218.432C277.956 211.939 275.088 205.01 275.088 205.01C275.088 205.01 308.706 208.895 329.274 206.802Z" fill="#2C3540" stroke="#263238" stroke-miterlimit="10" stroke-linecap="round" stroke-linejoin="round"/>
<path d="M306.476 219.907C306.476 219.907 312.046 216.688 315.273 213.398Z" fill="white"/>
<path d="M306.476 219.907C306.476 219.907 312.046 216.688 315.273 213.398" stroke="#263238" stroke-miterlimit="10" stroke-linecap="round" stroke-linejoin="round"/>
<path d="M294.154 213.626C294.154 213.626 302.936 217.314 305.494 223.206C308.052 229.1 306.344 251.625 305.209 260.827C304.074 270.029 302.299 277.844 300.419 283.431C298.539 289.019 289.12 334.573 289.12 334.573L287.872 341.89C287.872 341.89 283.553 343.298 282.02 343.08C280.487 342.863 277.794 341.413 277.794 341.413C277.794 341.413 274.314 298.205 275.909 290.727C277.504 283.249 286.048 272.219 286.048 272.219C286.048 272.219 286.437 270.692 285.996 268.283C285.556 265.875 273.594 242.935 270.337 226.245C267.08 209.556 268.695 204.386 268.695 204.386L280.32 207.22L289.859 208.535" fill="#2C3540"/>
<path d="M294.154 213.626C294.154 213.626 302.936 217.314 305.494 223.206C308.052 229.1 306.344 251.625 305.209 260.827C304.074 270.029 302.299 277.844 300.419 283.431C298.539 289.019 289.12 334.573 289.12 334.573L287.872 341.89C287.872 341.89 283.553 343.298 282.02 343.08C280.487 342.863 277.794 341.413 277.794 341.413C277.794 341.413 274.314 298.205 275.909 290.727C277.504 283.249 286.048 272.219 286.048 272.219C286.048 272.219 286.437 270.692 285.996 268.283C285.556 265.875 273.594 242.935 270.337 226.245C267.08 209.556 268.695 204.386 268.695 204.386L280.32 207.22L289.859 208.535" stroke="#263238" stroke-miterlimit="10" stroke-linecap="round" stroke-linejoin="round"/>
<path d="M277.795 341.413C277.795 341.413 275.86 353.027 273.952 358.099C272.044 363.17 274.876 367.71 279.171 368.516C283.465 369.321 288.484 368.528 289.154 364.229C289.824 359.93 288.562 348.149 288.619 346.261C288.676 344.372 287.873 341.89 287.873 341.89C287.873 341.89 281.855 344.305 277.795 341.413Z" fill="white" stroke="#263238" stroke-miterlimit="10" stroke-linecap="round" stroke-linejoin="round"/>
<path d="M289.154 364.229C289.396 362.675 289.384 360.142 289.275 357.454C288.65 358.352 286.642 360.617 282.101 360.911C277.718 361.195 275.291 358.17 274.408 356.77C274.257 357.247 274.105 357.696 273.953 358.099C272.045 363.17 274.877 367.71 279.172 368.516C283.465 369.32 288.484 368.527 289.154 364.229Z" fill="white" stroke="#263238" stroke-miterlimit="10" stroke-linecap="round" stroke-linejoin="round"/>
<path d="M310.45 341.89C310.45 341.89 314.236 347.172 320.57 351.953C326.904 356.734 330.39 357.515 329.528 359.243C328.666 360.971 320.967 361.143 315.442 360.841C309.917 360.539 304.707 358.761 302.427 358.287C300.147 357.812 297.012 358.798 296.281 356.211C295.55 353.624 299.006 341.371 299.006 341.371C299.006 341.371 307.444 342.029 310.45 341.89Z" fill="white" stroke="#263238" stroke-miterlimit="10" stroke-linecap="round" stroke-linejoin="round"/>
<path d="M329.528 359.242C330.349 357.596 327.224 356.803 321.458 352.606C320.067 353.111 317.203 354.009 314.571 353.929C310.93 353.819 298.176 347.088 298.176 347.088L297.597 346.836C296.739 350.456 295.878 354.789 296.28 356.209C297.011 358.796 300.146 357.811 302.426 358.285C304.706 358.759 309.916 360.536 315.441 360.839C320.966 361.142 328.666 360.971 329.528 359.242Z" fill="white" stroke="#263238" stroke-miterlimit="10" stroke-linecap="round" stroke-linejoin="round"/>
<path d="M325.093 121.65C325.093 121.65 327.34 122.221 328.231 126.021C329.122 129.822 329.191 169.066 329.191 169.066L321.689 171.732L320.239 167.124L325.889 128.591C325.889 128.591 325.074 122.278 325.093 121.65Z" fill="white" stroke="#263238" stroke-miterlimit="10" stroke-linecap="round" stroke-linejoin="round"/>
<path d="M328.948 142.515C328.806 134.557 328.583 127.522 328.231 126.021C327.34 122.221 325.093 121.649 325.093 121.649C325.074 122.277 325.889 128.591 325.889 128.591L323.754 143.153L328.948 142.515Z" fill="#D1D1D1" stroke="#263238" stroke-miterlimit="10" stroke-linecap="round" stroke-linejoin="round"/>
<path d="M324.642 138.606L331.028 137.951C331.028 137.951 329.995 128.061 329.069 125.583C328.142 123.106 325.093 121.649 325.093 121.649C325.093 121.649 325.625 134.76 324.642 138.606Z" fill="white" stroke="#263238" stroke-miterlimit="10" stroke-linecap="round" stroke-linejoin="round"/>
<path d="M263.551 133.495L253.771 193.501L257.176 192.927L265.253 133.208L263.551 133.495Z" fill="#999999" stroke="#263238" stroke-miterlimit="10" stroke-linecap="round" stroke-linejoin="round"/>
<path d="M290.971 100.372C290.971 100.372 289.065 112.29 287.234 115.325C285.404 118.36 274.937 119.588 274.937 119.588C274.937 119.588 267.557 120.91 268.721 127.126C269.885 133.342 277.229 171.423 276.808 172.569C276.387 173.715 268.697 204.387 268.697 204.387C268.697 204.387 288.813 209.825 307.766 209.047C326.719 208.27 329.274 206.802 329.274 206.802C329.274 206.802 327.484 189.364 324.812 181.943C322.14 174.522 320.222 167.704 320.239 167.125C320.257 166.546 326.818 128.5 326.526 125.401C326.234 122.302 324.936 120.524 321.088 120.021C317.24 119.518 312.246 118.594 309.41 116.577C306.574 114.56 305.077 106.595 305.077 106.595C305.077 106.595 297.316 107.711 290.971 100.372Z" fill="#D1D1D1" stroke="#263238" stroke-miterlimit="10" stroke-linecap="round" stroke-linejoin="round"/>
<path d="M311.722 117.818C310.864 117.457 310.073 117.049 309.409 116.576C306.573 114.558 305.076 106.594 305.076 106.594C305.076 106.594 297.316 107.711 290.971 100.372C290.971 100.372 289.065 112.29 287.234 115.325C286.51 116.526 284.433 117.439 282.188 118.11C284.951 121.987 293.009 132.462 299.462 132.5C305.172 132.534 309.662 123.088 311.722 117.818Z" fill="white" stroke="#263238" stroke-miterlimit="10" stroke-linecap="round" stroke-linejoin="round"/>
<path d="M315.794 84.3201C315.794 84.3201 314.829 90.6651 314.11 95.2791C313.391 99.8931 307.724 108.413 304.034 109.074C300.344 109.735 297.093 108.67 294.268 106.267C291.443 103.864 286.987 97.9341 286.987 97.9341C286.987 97.9341 282.543 97.9931 280.163 93.6711C277.783 89.3501 279.976 87.0981 281.538 86.5661C283.099 86.0341 286.386 85.9411 286.386 85.9411C286.386 85.9411 288.953 77.7131 290.123 77.3621C291.292 77.0111 296.532 76.2041 299.31 73.7771C302.087 71.3501 305.386 64.4971 307.502 64.7541C309.619 65.0111 316.291 74.2921 316.443 75.6481C316.596 77.0041 315.794 84.3201 315.794 84.3201Z" fill="white" stroke="#263238" stroke-miterlimit="10" stroke-linecap="round" stroke-linejoin="round"/>
<path d="M299.352 89.7524C299.844 89.7674 300.265 89.0537 300.292 88.1583C300.32 87.263 299.943 86.525 299.45 86.51C298.958 86.4951 298.537 87.2087 298.509 88.1041C298.482 88.9995 298.859 89.7374 299.352 89.7524Z" fill="#263238"/>
<path d="M309.474 90.3837C309.966 90.3987 310.388 89.685 310.415 88.7897C310.442 87.8943 310.065 87.1564 309.573 87.1414C309.08 87.1264 308.659 87.8401 308.632 88.7354C308.605 89.6308 308.982 90.3688 309.474 90.3837Z" fill="#263238"/>
<path d="M307.273 93.8818L303.997 94.9178" stroke="#263238" stroke-miterlimit="10" stroke-linecap="round" stroke-linejoin="round"/>
<path d="M298.263 96.6919C298.263 96.6919 299.447 100.461 304.827 99.6499" stroke="#263238" stroke-miterlimit="10" stroke-linecap="round" stroke-linejoin="round"/>
<path d="M296.214 83.972C296.214 83.972 299.506 82.449 303.033 83.854" stroke="#263238" stroke-miterlimit="10" stroke-linecap="round" stroke-linejoin="round"/>
<path d="M308.217 84.1729C308.217 84.1729 311.175 82.9639 312.894 85.1259" stroke="#263238" stroke-miterlimit="10" stroke-linecap="round" stroke-linejoin="round"/>
<path d="M308.351 68.642C308.351 68.642 306.251 74.18 302.281 77.729C298.311 81.279 290.551 82.396 290.551 82.396C290.551 82.396 288.662 87.361 287.843 88.881C287.024 90.401 285.293 90.156 285.293 90.156C285.293 90.156 282.837 88.343 278.101 85.302C273.364 82.261 271.376 77.758 273.393 74.922C275.411 72.086 281.843 57.408 289 57.045C296.158 56.683 309.608 59.022 312.426 61.618C315.245 64.214 320.73 74.425 321.221 77.337C321.712 80.249 322.093 80.454 320.122 81.746C318.151 83.038 315.794 84.319 315.794 84.319L315.56 79.29L308.351 68.642Z" fill="#263238" stroke="#263238" stroke-miterlimit="10" stroke-linecap="round" stroke-linejoin="round"/>
<path d="M250.95 208.322C250.95 208.322 246.484 227.158 247.576 230.24C248.668 233.322 268.504 243.918 273.715 245.261C278.925 246.605 284.572 244.743 286.151 242.928C287.731 241.113 284.556 200.532 284.556 200.532L253.771 193.501L250.95 208.322Z" fill="#999999" stroke="#263238" stroke-miterlimit="10" stroke-linecap="round" stroke-linejoin="round"/>
<path d="M276.582 200.968C276.341 203.332 277.438 217.425 277.438 217.425C277.438 217.425 274.303 242.748 275.578 245.607C280.206 246.162 284.759 244.529 286.151 242.928C287.731 241.113 284.556 200.532 284.556 200.532L278.619 199.177C277.425 199.772 276.641 200.385 276.582 200.968Z" fill="#999999" stroke="#263238" stroke-miterlimit="10" stroke-linecap="round" stroke-linejoin="round"/>
<path d="M259.428 191.301C259.428 191.301 250.946 191.721 250.54 193.911C250.135 196.101 247.981 205.691 249.617 207.604C251.253 209.516 276.756 217.573 277.438 217.424C278.12 217.275 276.341 203.331 277.212 202.511C278.083 201.691 284.556 200.532 284.556 200.532L259.428 191.301Z" fill="#999999" stroke="#263238" stroke-miterlimit="10" stroke-linecap="round" stroke-linejoin="round"/>
<path d="M274.937 119.588C274.937 119.588 277.89 118.685 279.367 125.844C280.844 133.003 279.264 201.897 279.264 201.897L282.839 201.328C282.839 201.328 281.11 129.793 281.203 126.747C281.295 123.701 280.383 120.286 278.552 119.214C276.72 118.141 274.937 119.588 274.937 119.588Z" fill="#999999" stroke="#263238" stroke-miterlimit="10" stroke-linecap="round" stroke-linejoin="round"/>
<path d="M277.053 119.845C277.053 119.845 269.176 118.448 266.445 119.33C263.714 120.213 260.118 124.161 260.118 124.161L259.112 138.23L278.45 137.464L276.509 125.043" fill="#D1D1D1"/>
<path d="M277.053 119.845C277.053 119.845 269.176 118.448 266.445 119.33C263.714 120.213 260.118 124.161 260.118 124.161L259.112 138.23L278.45 137.464L276.509 125.043" stroke="#263238" stroke-miterlimit="10" stroke-linecap="round" stroke-linejoin="round"/>
<path d="M262.211 137.938C262.211 137.938 273.632 175.37 274.386 175.972C275.14 176.575 277.479 175.873 278.064 175.697C278.649 175.522 316.373 135.33 316.373 135.33C316.373 135.33 320.116 132.933 321.706 131.435C323.296 129.938 325.016 124.195 325.016 124.195C325.016 124.195 330.671 122.435 331.449 122.265C332.227 122.096 333.999 120.99 333.999 120.99C333.999 120.99 328.49 117.926 325.987 117.657C323.484 117.388 320.543 118.844 319.753 119.4C318.964 119.955 311.59 133.832 311.59 133.832L282.152 155.539L276.515 137.598L262.211 137.938Z" fill="white" stroke="#263238" stroke-miterlimit="10" stroke-linecap="round" stroke-linejoin="round"/>
<path d="M331.449 122.266L321.555 155.575L346.337 159.996L356.021 127.26L331.449 122.266Z" fill="#2C3540" stroke="#263238" stroke-miterlimit="10" stroke-linecap="round" stroke-linejoin="round"/>
<path d="M356.021 127.26L364.612 117.863L351.016 152.219L346.337 159.996L356.021 127.26Z" fill="#2C3540" stroke="#263238" stroke-miterlimit="10" stroke-linecap="round" stroke-linejoin="round"/>
<path d="M325.397 182.158C325.397 182.158 340.035 168.137 340.423 167.772C340.811 167.406 350.046 161.523 350.046 161.523L350.816 156.893C350.816 156.893 352.545 153.801 352.815 153.18C353.085 152.559 354.943 141.044 354.045 141.646C353.146 142.248 352.891 142.366 352.739 143.241C352.587 144.117 351.016 152.219 351.016 152.219C351.016 152.219 349.749 146.421 348.915 144.886C348.081 143.351 347.148 145.084 347.129 145.713C347.11 146.342 348.763 154.064 348.763 154.064C348.763 154.064 343.854 150.016 342.99 149.487C342.126 148.958 341.832 150.332 342.312 151.102C342.791 151.871 346.181 156.25 346.181 156.25L345.873 158.127C345.873 158.127 342.423 155.759 341.429 155.351C340.435 154.944 340.412 155.698 341.01 156.722C341.608 157.746 342.194 159.148 342.194 159.148L339.426 159.19C339.426 159.19 335.762 163.859 335.606 164.86C335.45 165.861 335.157 167.236 335.157 167.236L321.688 171.734L325.397 182.158Z" fill="white" stroke="#263238" stroke-miterlimit="10" stroke-linecap="round" stroke-linejoin="round"/>
<path d="M223.192 306.515H220.412V361.796H223.192V306.515Z" fill="white" stroke="#263238" stroke-miterlimit="10" stroke-linecap="round" stroke-linejoin="round"/>
<path d="M85.76 306.515H82.981V361.796H85.76V306.515Z" fill="white" stroke="#263238" stroke-miterlimit="10" stroke-linecap="round" stroke-linejoin="round"/>
<path d="M212.691 212.012H90.084V293.853H212.691V212.012Z" fill="white" stroke="#263238" stroke-miterlimit="10" stroke-linecap="round" stroke-linejoin="round"/>
<path d="M204.971 284.863H100.585V309.295H204.971V284.863Z" fill="white" stroke="#263238" stroke-miterlimit="10" stroke-linecap="round" stroke-linejoin="round"/>
<path d="M100.585 247.093H79.228V309.295H100.585V247.093Z" fill="white" stroke="#263238" stroke-miterlimit="10" stroke-linecap="round" stroke-linejoin="round"/>
<path d="M226.28 247.093H204.923V309.295H226.28V247.093Z" fill="white" stroke="#263238" stroke-miterlimit="10" stroke-linecap="round" stroke-linejoin="round"/>
<path d="M122.716 118.575C122.716 118.575 110.323 116.935 111.599 118.94C112.874 120.944 115.79 121.309 115.79 121.309C115.79 121.309 105.767 122.402 101.757 129.51C97.748 136.617 101.028 134.795 101.028 134.795C101.028 134.795 95.378 142.814 95.561 147.188C95.743 151.562 98.841 149.193 98.841 149.193C98.841 149.193 98.294 159.216 100.299 161.586C102.303 163.955 103.761 160.857 103.761 160.857C103.761 160.857 108.135 166.689 112.327 168.693C116.518 170.698 117.247 167.418 117.247 167.418C117.247 167.418 128 173.25 134.014 173.067C140.028 172.885 146.224 168.147 146.224 168.147C146.224 168.147 146.042 169.969 147.318 169.969C148.594 169.969 157.341 163.044 157.341 163.044C157.341 163.044 156.248 165.595 158.981 163.226C161.715 160.857 163.537 151.198 163.537 146.824C163.537 142.45 160.804 136.618 160.804 136.618C160.804 136.618 164.084 139.352 164.084 137.165C164.084 134.978 159.528 126.23 153.878 123.314C148.229 120.398 144.766 120.034 144.766 120.034C144.766 120.034 147.682 118.394 145.13 117.301C142.579 116.207 133.649 116.207 133.649 116.207C133.649 116.207 135.289 113.656 131.826 114.385C128.366 115.113 123.081 116.935 122.716 118.575Z" fill="#263238" stroke="#263238" stroke-miterlimit="10" stroke-linecap="round" stroke-linejoin="round"/>
<path d="M114.747 258.033C114.747 258.033 110.788 269.582 112.272 276.016C113.757 282.45 117.716 284.759 119.531 285.089C121.345 285.419 150.052 285.089 150.052 285.089L166.055 244.834L114.747 258.033Z" fill="#263238" stroke="#263238" stroke-miterlimit="10" stroke-linecap="round" stroke-linejoin="round"/>
<path d="M123.627 165.413C123.627 165.413 124.646 171.255 123.656 174.72C122.666 178.184 117.552 180.824 112.602 182.639C107.652 184.454 98.2493 185.774 96.5993 190.228C94.9493 194.683 91.4854 236.587 91.4854 238.072C91.4854 239.556 95.7753 242.031 99.2393 241.701C102.703 241.372 106.993 234.277 106.993 234.277C106.993 234.277 110.787 257.375 112.767 258.529C114.746 259.684 119.036 258.529 119.036 258.529L164.735 245.331C164.735 245.331 174.964 248.796 179.748 246.816C184.532 244.836 185.192 241.042 183.873 235.597C182.554 230.152 173.479 196.167 171.499 189.403C169.519 182.639 167.54 179.174 164.9 177.69C162.26 176.206 151.702 177.36 147.577 176.7C143.452 176.04 138.503 166.966 138.503 163.337L123.627 165.413Z" fill="#999999" stroke="#263238" stroke-miterlimit="10" stroke-linecap="round" stroke-linejoin="round"/>
<path d="M135.865 188.413C143.424 186.769 148.361 180.765 150.827 176.913C149.557 176.892 148.427 176.835 147.578 176.7C143.453 176.04 138.504 166.966 138.504 163.337L123.627 165.414C123.627 165.414 124.646 171.256 123.656 174.721C122.75 177.892 118.387 180.37 113.859 182.159C118.543 185.193 127.783 190.169 135.865 188.413Z" fill="white" stroke="#263238" stroke-miterlimit="10" stroke-linecap="round" stroke-linejoin="round"/>
<path d="M125.268 137.165C125.268 137.165 125.632 140.445 127.273 139.716C128.913 138.987 134.016 133.884 134.016 133.884C134.016 133.884 133.652 136.983 137.115 138.805C140.577 140.627 139.302 137.894 139.302 137.894L143.676 143.361L144.77 151.926C144.77 151.926 145.499 158.305 143.676 161.767C141.854 165.23 137.298 169.603 133.47 170.15C129.642 170.697 126.362 168.875 123.629 165.412C120.895 161.949 119.619 159.216 119.619 159.216C119.619 159.216 116.157 146.823 117.615 144.454C119.071 142.085 125.268 137.165 125.268 137.165Z" fill="white" stroke="#263238" stroke-miterlimit="10" stroke-linecap="round" stroke-linejoin="round"/>
<path d="M117.769 151.053C117.769 151.053 112.875 147.735 113.604 152.837C114.333 157.94 118.889 156.3 118.889 156.3L117.769 151.053Z" fill="white" stroke="#263238" stroke-miterlimit="10" stroke-linecap="round" stroke-linejoin="round"/>
<path d="M144.585 148.464C144.585 148.464 147.319 146.277 148.048 148.464C148.777 150.651 144.95 154.113 144.95 154.113L144.585 148.464Z" fill="white" stroke="#263238" stroke-miterlimit="10" stroke-linecap="round" stroke-linejoin="round"/>
<path d="M127.292 154.058C127.772 154.058 128.16 153.5 128.16 152.811C128.16 152.122 127.772 151.564 127.292 151.564C126.813 151.564 126.424 152.122 126.424 152.811C126.424 153.5 126.813 154.058 127.292 154.058Z" fill="#263238"/>
<path d="M136.285 153.585C136.765 153.585 137.153 153.026 137.153 152.337C137.153 151.648 136.765 151.089 136.285 151.089C135.806 151.089 135.417 151.648 135.417 152.337C135.417 153.026 135.806 153.585 136.285 153.585Z" fill="#263238"/>
<path d="M124.057 148.392C124.057 148.392 125.477 146.183 129.264 147.13" stroke="#263238" stroke-miterlimit="10" stroke-linecap="round" stroke-linejoin="round"/>
<path d="M133.366 146.499C133.366 146.499 136.522 145.079 138.888 147.603" stroke="#263238" stroke-miterlimit="10" stroke-linecap="round" stroke-linejoin="round"/>
<path d="M126.897 160.542C126.897 160.542 132.893 164.486 137.626 159.438" stroke="#263238" stroke-miterlimit="10" stroke-linecap="round" stroke-linejoin="round"/>
<path d="M130.053 156.597C130.053 156.597 131.947 157.701 132.893 157.228C133.84 156.754 133.84 155.808 133.84 155.808" stroke="#263238" stroke-miterlimit="10" stroke-linecap="round" stroke-linejoin="round"/>
<path d="M97.919 246.815C100.064 246.485 103.528 242.525 104.023 241.371C104.286 240.759 105.614 232.222 106.804 224.332C103.927 224.924 100.677 223.187 98.451 221.61C96.227 225.554 94.25 228.936 93.794 229.327C92.639 230.317 89.174 237.246 90.33 242.03C91.485 246.815 95.775 247.145 97.919 246.815Z" fill="white" stroke="#263238" stroke-miterlimit="10" stroke-linecap="round" stroke-linejoin="round"/>
<path d="M105.838 208.21C105.838 208.21 103.198 195.342 104.353 194.682C105.508 194.022 115.572 192.703 116.066 193.032C116.561 193.362 117.056 203.426 117.056 203.426L113.426 204.745C113.426 204.745 113.921 207.22 112.931 208.375C111.941 209.53 108.806 210.85 108.806 210.85C108.806 210.85 104.516 240.216 104.021 241.371C103.526 242.525 100.062 246.485 97.9172 246.815C95.7722 247.144 91.4832 246.815 90.3282 242.03C89.1732 237.246 92.6382 230.317 93.7922 229.327C94.9462 228.337 105.838 208.21 105.838 208.21Z" fill="white" stroke="#263238" stroke-miterlimit="10" stroke-linecap="round" stroke-linejoin="round"/>
<path d="M111.613 193.197C111.613 193.197 112.933 190.887 113.427 189.568C113.922 188.248 115.242 188.578 115.737 190.063C116.232 191.547 116.067 193.032 116.067 193.032L111.613 193.197Z" fill="white" stroke="#263238" stroke-miterlimit="10" stroke-linecap="round" stroke-linejoin="round"/>
<path d="M129.925 189.402H116.727V207.384H129.925V189.402Z" fill="white" stroke="#263238" stroke-miterlimit="10" stroke-linecap="round" stroke-linejoin="round"/>
<path d="M167.375 201.446C167.375 201.446 168.348 198.915 169.786 198.052C171.224 197.189 188.189 191.15 188.189 191.15L167.375 201.446Z" fill="white" stroke="#263238" stroke-miterlimit="10" stroke-linecap="round" stroke-linejoin="round"/>
<path d="M167.375 201.446C167.375 201.446 164.897 198.34 163.747 198.052C162.597 197.764 139.164 193.196 139.164 193.196L167.375 201.446Z" fill="white" stroke="#263238" stroke-miterlimit="10" stroke-linecap="round" stroke-linejoin="round"/>
<path d="M139.164 193.197L134.05 225.038L162.096 233.946L167.375 201.446L139.164 193.197Z" fill="#2C3540" stroke="#263238" stroke-miterlimit="10" stroke-linecap="round" stroke-linejoin="round"/>
<path d="M167.375 201.446L190.308 190.722L184.368 225.697L162.096 233.946L167.375 201.446Z" fill="#2C3540" stroke="#263238" stroke-miterlimit="10" stroke-linecap="round" stroke-linejoin="round"/>
<path d="M175.625 234.276C175.625 234.276 168.201 225.203 167.376 225.038C166.551 224.873 166.056 226.357 166.716 227.513C167.376 228.667 171.336 234.277 171.336 234.277C171.336 234.277 164.572 228.008 163.582 227.513C162.592 227.018 161.437 228.173 161.602 229.162C161.767 230.152 167.872 236.751 167.872 236.751C167.872 236.751 159.623 231.307 158.963 230.977C158.303 230.648 157.973 232.297 158.798 233.123C159.623 233.947 160.613 235.598 160.613 235.598C160.613 235.598 163.253 239.227 163.748 239.722C164.243 240.217 165.727 242.692 168.037 242.362C170.347 242.032 175.461 238.898 176.121 237.083C176.779 235.267 175.625 234.276 175.625 234.276Z" fill="white" stroke="#263238" stroke-miterlimit="10" stroke-linecap="round" stroke-linejoin="round"/>
<path d="M160.611 235.597L166.551 240.546" stroke="#263238" stroke-miterlimit="10" stroke-linecap="round" stroke-linejoin="round"/>
<path d="M169.19 243.186C169.19 243.186 178.429 248.465 184.533 257.374C190.637 266.282 191.297 275.191 188.162 280.141C185.028 285.09 180.408 285.42 177.274 285.42C174.139 285.42 165.066 285.42 165.066 285.42C165.066 285.42 164.736 276.511 162.921 273.212C161.107 269.912 153.682 268.922 149.393 263.313C145.103 257.705 146.588 242.691 154.672 240.546C162.756 238.401 169.19 243.186 169.19 243.186Z" fill="#263238" stroke="#263238" stroke-miterlimit="10" stroke-linecap="round" stroke-linejoin="round"/>
<path d="M160.611 264.633C160.611 264.633 164.736 267.108 166.385 277.171C168.034 287.234 167.045 321.386 167.045 327.489C167.045 333.593 168.2 340.522 168.2 340.522L156.322 342.172C156.322 342.172 152.197 326.334 147.908 308.022C143.618 289.709 142.134 279.48 146.588 270.242C151.042 261.003 160.611 264.633 160.611 264.633Z" fill="#263238" stroke="#263238" stroke-miterlimit="10" stroke-linecap="round" stroke-linejoin="round"/>
<path d="M167.045 253.579C167.045 253.579 163.251 264.798 155.827 275.686C148.403 286.575 139.329 295.813 136.854 299.278C134.379 302.743 127.78 312.641 127.78 312.641L117.881 303.897C117.881 303.897 127.45 286.905 131.409 277.501C135.368 268.098 145.762 242.195 151.701 239.391C157.64 236.586 160.775 237.246 168.034 242.361L171.994 246.321" fill="#263238"/>
<path d="M167.045 253.579C167.045 253.579 163.251 264.798 155.827 275.686C148.403 286.575 139.329 295.813 136.854 299.278C134.379 302.743 127.78 312.641 127.78 312.641L117.881 303.897C117.881 303.897 127.45 286.905 131.409 277.501C135.368 268.098 145.762 242.195 151.701 239.391C157.64 236.586 160.775 237.246 168.034 242.361L171.994 246.321" stroke="#263238" stroke-miterlimit="10" stroke-linecap="round" stroke-linejoin="round"/>
<path d="M117.882 303.897C117.882 303.897 111.943 305.382 107.819 305.382C103.695 305.382 93.961 300.927 92.806 303.402C91.651 305.877 97.096 313.961 100.395 317.59C103.695 321.22 106.829 324.684 109.304 327.323C111.779 329.963 114.419 330.788 116.068 330.128C117.718 329.469 127.782 312.641 127.782 312.641L117.882 303.897Z" fill="white" stroke="#263238" stroke-miterlimit="10" stroke-linecap="round" stroke-linejoin="round"/>
<path d="M112.603 323.695C110.624 321.549 104.189 311.651 100.89 307.362C99.047 304.966 96.69 303.498 94.968 302.668C93.879 302.614 93.086 302.802 92.806 303.402C91.651 305.877 97.096 313.961 100.395 317.59C103.695 321.22 106.829 324.684 109.304 327.323C111.779 329.963 114.419 330.788 116.068 330.128C116.399 329.996 117.071 329.208 117.928 328.042C116.137 326.75 113.756 324.944 112.603 323.695Z" fill="white" stroke="#263238" stroke-miterlimit="10" stroke-linecap="round" stroke-linejoin="round"/>
<path d="M95.9398 306.042C93.4648 302.743 93.1348 304.888 93.1348 304.888L92.6758 304.643C93.0418 307.919 97.5258 314.436 100.394 317.591C103.694 321.221 106.828 324.685 109.303 327.324C111.778 329.964 114.418 330.789 116.067 330.129C116.067 330.129 111.943 327.159 108.643 323.86C105.343 320.561 98.4148 309.342 95.9398 306.042Z" fill="#999999" stroke="#263238" stroke-miterlimit="10" stroke-linecap="round" stroke-linejoin="round"/>
<path d="M156.322 342.173C156.322 342.173 155.662 349.432 154.508 354.546C153.354 359.66 155.992 362.96 157.807 363.785C159.622 364.609 170.676 363.95 172.325 363.455C173.975 362.96 175.955 361.476 174.305 356.196C172.655 350.916 168.201 340.522 168.201 340.522L156.322 342.173Z" fill="white" stroke="#263238" stroke-miterlimit="10" stroke-linecap="round" stroke-linejoin="round"/>
<path d="M172.325 363.455C173.48 363.108 174.791 362.271 174.912 359.994C164.515 362.663 157.525 361.502 155.117 360.913C155.858 362.399 156.928 363.385 157.807 363.785C159.622 364.609 170.675 363.95 172.325 363.455Z" fill="white" stroke="#263238" stroke-miterlimit="10" stroke-linecap="round" stroke-linejoin="round"/>
</g>
<defs>
<clipPath id="clip0_556_2">
<rect width="724.967" height="397.422" fill="white"/>
</clipPath>
</defs>
</svg>
